<svg width="30" height="30" viewBox="0 0 30 30" fill="none" xmlns="http://www.w3.org/2000/svg">
<path d="M6.25 15.9495C6.25 14.2524 6.25 13.4037 6.59307 12.6577C6.93615 11.9119 7.58046 11.3596 8.86906 10.2551L10.1191 9.18365C12.4482 7.18724 13.6128 6.18903 15 6.18903C16.3872 6.18903 17.5518 7.18724 19.8809 9.18365L21.1309 10.2551C22.4195 11.3596 23.0639 11.9119 23.4069 12.6577C23.75 13.4037 23.75 14.2524 23.75 15.9495V21.25C23.75 23.607 23.75 24.7855 23.0177 25.5177C22.2855 26.25 21.107 26.25 18.75 26.25H11.25C8.89298 26.25 7.71446 26.25 6.98224 25.5177C6.25 24.7855 6.25 23.607 6.25 21.25V15.9495Z" stroke="#948989" stroke-width="2"/>
<path d="M18.125 26.25V20C18.125 19.3096 17.5654 18.75 16.875 18.75H13.125C12.4346 18.75 11.875 19.3096 11.875 20V26.25" stroke="#948989" stroke-width="2" stroke-linecap="round" stroke-linejoin="round"/>
</svg>
