<svg width="30" height="30" viewBox="0 0 30 30" fill="none" xmlns="http://www.w3.org/2000/svg">
<path d="M8.12839 8.71899C8.48144 5.18854 11.4522 2.5 15.0003 2.5C18.5483 2.5 21.5192 5.18854 21.8722 8.71899L22.2304 12.3017C22.2523 12.5195 22.2632 12.6285 22.2762 12.7356C22.4564 14.2146 22.9649 15.6346 23.7644 16.8919C23.8223 16.9831 23.883 17.0741 24.0045 17.2564L25.0809 18.871C26.0638 20.3454 26.5553 21.0825 26.3397 21.6765C26.2988 21.7889 26.2422 21.8948 26.1713 21.991C25.7967 22.5 24.9107 22.5 23.1388 22.5H6.86183C5.08989 22.5 4.20393 22.5 3.82926 21.991C3.75843 21.8948 3.70175 21.7889 3.66096 21.6765C3.4453 21.0825 3.93674 20.3454 4.91964 18.871L5.99605 17.2564C6.11751 17.0741 6.17824 16.9831 6.2362 16.8919C7.03569 15.6346 7.54414 14.2146 7.72438 12.7356C7.73744 12.6285 7.74834 12.5195 7.77013 12.3017L8.12839 8.71899Z" fill="#948989"/>
<path d="M12.585 25.7867C12.7275 25.9196 13.0413 26.0371 13.478 26.1209C13.9146 26.2046 14.4495 26.25 14.9998 26.25C15.5502 26.25 16.0851 26.2046 16.5217 26.1209C16.9583 26.0371 17.2722 25.9196 17.4147 25.7867" stroke="#948989" stroke-width="2" stroke-linecap="round"/>
</svg>
