<svg width="30" height="30" viewBox="0 0 30 30" fill="none" xmlns="http://www.w3.org/2000/svg">
<path d="M24.5646 25.5067C25.2558 25.3627 25.6673 24.6396 25.3239 24.0229C24.5669 22.6634 23.3744 21.4686 21.8489 20.5581C19.8841 19.3856 17.4768 18.75 15.0003 18.75C12.5238 18.75 10.1165 19.3856 8.15171 20.5581C6.62617 21.4686 5.43363 22.6634 4.67666 24.0229C4.33328 24.6396 4.74483 25.3627 5.43586 25.5067C11.7444 26.8215 18.2561 26.8215 24.5646 25.5067Z" fill="#948989"/>
<path d="M15 16.25C18.4518 16.25 21.25 13.4518 21.25 10C21.25 6.54822 18.4518 3.75 15 3.75C11.5482 3.75 8.75 6.54822 8.75 10C8.75 13.4518 11.5482 16.25 15 16.25Z" fill="#948989"/>
</svg>
