<svg width="30" height="30" viewBox="0 0 30 30" fill="none" xmlns="http://www.w3.org/2000/svg">
<path d="M11.25 5H6.25C5.55964 5 5 5.55964 5 6.25V12.5C5 13.1904 5.55964 13.75 6.25 13.75H11.25C11.9404 13.75 12.5 13.1904 12.5 12.5V6.25C12.5 5.55964 11.9404 5 11.25 5Z" stroke="#B0A6A6" stroke-width="2" stroke-linejoin="round"/>
<path d="M11.25 18.75H6.25C5.55964 18.75 5 19.3096 5 20V23.75C5 24.4404 5.55964 25 6.25 25H11.25C11.9404 25 12.5 24.4404 12.5 23.75V20C12.5 19.3096 11.9404 18.75 11.25 18.75Z" stroke="#B0A6A6" stroke-width="2" stroke-linejoin="round"/>
<path d="M23.75 5H18.75C18.0596 5 17.5 5.55964 17.5 6.25V10C17.5 10.6904 18.0596 11.25 18.75 11.25H23.75C24.4404 11.25 25 10.6904 25 10V6.25C25 5.55964 24.4404 5 23.75 5Z" stroke="#B0A6A6" stroke-width="2" stroke-linejoin="round"/>
<path d="M23.75 16.25H18.75C18.0596 16.25 17.5 16.8096 17.5 17.5V23.75C17.5 24.4404 18.0596 25 18.75 25H23.75C24.4404 25 25 24.4404 25 23.75V17.5C25 16.8096 24.4404 16.25 23.75 16.25Z" stroke="#B0A6A6" stroke-width="2" stroke-linejoin="round"/>
</svg>
