<svg width="30" height="30" viewBox="0 0 30 30" fill="none" xmlns="http://www.w3.org/2000/svg">
<path d="M6.25 10V2.5" stroke="#948989" stroke-width="2" stroke-linecap="round" stroke-linejoin="round"/>
<path fill-rule="evenodd" clip-rule="evenodd" d="M4.08713 12.2556C3.86693 13.134 3.75 14.0534 3.75 15C3.75 21.2132 8.7868 26.25 15 26.25H20.625C22.3722 26.25 23.2459 26.25 23.9351 25.9645C24.8539 25.584 25.584 24.8539 25.9645 23.9351C26.25 23.2459 26.25 22.3722 26.25 20.625V15C26.25 8.7868 21.2132 3.75 15 3.75C14.0534 3.75 13.134 3.86693 12.2556 4.08713C12.7941 4.64856 13.125 5.41064 13.125 6.25C13.125 7.97589 11.7259 9.375 10 9.375H9.375V10C9.375 11.7259 7.97589 13.125 6.25 13.125C5.41064 13.125 4.64856 12.7941 4.08713 12.2556ZM11.25 12.5C10.5596 12.5 10 13.0596 10 13.75C10 14.4404 10.5596 15 11.25 15H18.75C19.4404 15 20 14.4404 20 13.75C20 13.0596 19.4404 12.5 18.75 12.5H11.25ZM15 17.5C14.3096 17.5 13.75 18.0596 13.75 18.75C13.75 19.4404 14.3096 20 15 20H18.75C19.4404 20 20 19.4404 20 18.75C20 18.0596 19.4404 17.5 18.75 17.5H15Z" fill="#B0A6A6"/>
<path d="M2.5 6.25H10" stroke="#948989" stroke-width="2" stroke-linecap="round" stroke-linejoin="round"/>
</svg>
