<svg width="30" height="30" viewBox="0 0 30 30" fill="none" xmlns="http://www.w3.org/2000/svg">
<path fill-rule="evenodd" clip-rule="evenodd" d="M3.59835 4.84835C2.5 5.9467 2.5 7.71446 2.5 11.25V18.75C2.5 22.2855 2.5 24.0532 3.59835 25.1516C4.6967 26.25 6.46446 26.25 10 26.25H20C23.5355 26.25 25.3032 26.25 26.4016 25.1516C27.5 24.0532 27.5 22.2855 27.5 18.75V11.25C27.5 7.71446 27.5 5.9467 26.4016 4.84835C25.3032 3.75 23.5355 3.75 20 3.75H10C6.46446 3.75 4.6967 3.75 3.59835 4.84835ZM20 10C20.6904 10 21.25 10.5596 21.25 11.25V21.25C21.25 21.9404 20.6904 22.5 20 22.5C19.3096 22.5 18.75 21.9404 18.75 21.25V11.25C18.75 10.5596 19.3096 10 20 10ZM11.25 13.75C11.25 13.0596 10.6903 12.5 10 12.5C9.30965 12.5 8.75 13.0596 8.75 13.75V21.25C8.75 21.9404 9.30965 22.5 10 22.5C10.6904 22.5 11.25 21.9404 11.25 21.25V13.75ZM16.25 16.25C16.25 15.5596 15.6904 15 15 15C14.3096 15 13.75 15.5596 13.75 16.25V21.25C13.75 21.9404 14.3096 22.5 15 22.5C15.6904 22.5 16.25 21.9404 16.25 21.25V16.25Z" fill="#948989"/>
</svg>
