<svg width="30" height="30" viewBox="0 0 30 30" fill="none" xmlns="http://www.w3.org/2000/svg">
<path fill-rule="evenodd" clip-rule="evenodd" d="M0.588128 9.67372C-3.19311e-07 10.7891 0 12.0582 0 14.5962V22.5228C0 26.0477 3.83173e-07 27.8101 1.25526 28.9051C2.39428 29.8987 4.16325 29.9907 7.5 29.9993V20.6537C7.5 18.5888 9.41878 16.915 11.7857 16.915H18.2143C20.5813 16.915 22.5 18.5888 22.5 20.6537V29.9993C25.8369 29.9907 27.6058 29.8987 28.7447 28.9051C30 27.8101 30 26.0477 30 22.5228V14.5962C30 12.0582 30 10.7891 29.4118 9.67372C28.8238 8.55817 27.7191 7.73231 25.5101 6.08056L23.3672 4.4783C19.3744 1.49277 17.3781 0 15 0C12.6219 0 10.6255 1.49277 6.63268 4.4783L4.48982 6.08056C2.28079 7.73231 1.17626 8.55817 0.588128 9.67372ZM18.2143 30V20.6537H11.7857V30H18.2143Z" fill="#3761C3"/>
</svg>
