<svg width="50" height="50" viewBox="0 0 50 50" fill="none" xmlns="http://www.w3.org/2000/svg">
<path fill-rule="evenodd" clip-rule="evenodd" d="M4.16666 25C4.16666 13.4941 13.4941 4.16669 25 4.16669C36.5058 4.16669 45.8333 13.4941 45.8333 25C45.8333 31.2794 43.0552 36.9098 38.661 40.7294C37.7075 38.1773 36.0542 35.9336 33.8777 34.2636C31.3308 32.3094 28.2102 31.25 25 31.25C21.7898 31.25 18.6691 32.3094 16.1222 34.2636C13.9459 35.9336 12.2924 38.1773 11.3389 40.7294C6.94476 36.9098 4.16666 31.2794 4.16666 25ZM35.0617 43.1373C35.0702 43.1692 35.0794 43.2006 35.0894 43.2317C32.1002 44.8894 28.6604 45.8334 25 45.8334C21.3396 45.8334 17.8998 44.8894 14.9106 43.2317C14.9205 43.2006 14.9297 43.1692 14.9383 43.1373C15.5318 40.9223 16.8395 38.9652 18.6587 37.5692C20.478 36.1734 22.7069 35.4167 25 35.4167C27.2931 35.4167 29.5221 36.1734 31.3412 37.5692C33.1604 38.9652 34.4683 40.9223 35.0617 43.1373ZM20.8333 18.75C20.8333 16.4488 22.6987 14.5834 25 14.5834C27.3012 14.5834 29.1667 16.4488 29.1667 18.75C29.1667 21.0513 27.3012 22.9167 25 22.9167C22.6987 22.9167 20.8333 21.0513 20.8333 18.75ZM25 10.4167C20.3976 10.4167 16.6667 14.1476 16.6667 18.75C16.6667 23.3523 20.3976 27.0834 25 27.0834C29.6023 27.0834 33.3333 23.3523 33.3333 18.75C33.3333 14.1476 29.6023 10.4167 25 10.4167Z" fill="#948989"/>
<path d="M44.7917 25C44.7917 14.0693 35.9306 5.20831 25 5.20831C14.0694 5.20831 5.20833 14.0693 5.20833 25C5.20833 35.9306 14.0694 44.7916 25 44.7916C35.9306 44.7916 44.7917 35.9306 44.7917 25Z" stroke="#948989"/>
</svg>
