<svg width="24" height="24" viewBox="0 0 24 24" fill="none" xmlns="http://www.w3.org/2000/svg">
<path d="M6.998 10.2467L7.43287 11.0077C7.70972 11.4922 7.84814 11.7344 7.84814 12C7.84814 12.2656 7.70972 12.5078 7.43288 12.9923H7.43287L6.998 13.7533C5.7597 15.9203 5.14055 17.0039 5.62337 17.5412C6.10619 18.0785 7.2495 17.5783 9.53612 16.5779L15.8118 13.8323C17.6073 13.0468 18.505 12.654 18.505 12C18.505 11.346 17.6073 10.9532 15.8118 10.1677L9.53613 7.42208C7.24951 6.42169 6.10619 5.92149 5.62337 6.45881C5.14055 6.99613 5.7597 8.07964 6.998 10.2467Z" fill="#726A6A"/>
</svg>
