<svg width="24" height="24" viewBox="0 0 24 24" fill="none" xmlns="http://www.w3.org/2000/svg">
<path d="M4.92899 19.071C3.99903 18.1434 3.26153 17.0413 2.75887 15.8278C2.25622 14.6143 1.99832 13.3135 1.99999 12C1.99999 6.477 6.47699 2 12 2C17.523 2 22 6.477 22 12C22 17.523 17.523 22 12 22H1.99999L4.92899 19.071ZM7.99999 13C7.99999 14.0609 8.42142 15.0783 9.17157 15.8284C9.92171 16.5786 10.9391 17 12 17C13.0609 17 14.0783 16.5786 14.8284 15.8284C15.5786 15.0783 16 14.0609 16 13H7.99999Z" fill="white"/>
</svg>
