<svg width="24" height="24" viewBox="0 0 24 24" fill="none" xmlns="http://www.w3.org/2000/svg">
<path d="M13.7533 6.99812L12.9923 7.43299C12.5078 7.70984 12.2656 7.84826 12 7.84826C11.7344 7.84826 11.4922 7.70984 11.0077 7.433V7.43299L10.2467 6.99812C8.07972 5.75982 6.99612 5.14067 6.45882 5.62349C5.92152 6.10631 6.42172 7.24962 7.42212 9.53624L10.1677 15.8119C10.9532 17.6074 11.346 18.5051 12 18.5051C12.654 18.5051 13.0468 17.6074 13.8323 15.8119L16.5779 9.53625C17.5783 7.24963 18.0785 6.10631 17.5412 5.62349C17.0039 5.14067 15.9204 5.75982 13.7533 6.99812Z" fill="#726A6A"/>
</svg>
