<svg width="39" height="37" viewBox="0 0 39 37" fill="none" xmlns="http://www.w3.org/2000/svg">
<path fill-rule="evenodd" clip-rule="evenodd" d="M5.82691 3.98647C4.875 4.88954 4.875 6.34304 4.875 9.25004V24.6667C4.875 29.0272 4.875 31.2074 6.30286 32.562C7.34497 33.5507 8.85064 33.8179 11.375 33.89V29.2917C11.375 28.4402 12.1025 27.75 13 27.75C13.8975 27.75 14.625 28.4402 14.625 29.2917V33.9167H24.375V29.2917C24.375 28.4402 25.1025 27.75 26 27.75C26.8975 27.75 27.625 28.4402 27.625 29.2917V33.89C30.1493 33.8179 31.655 33.5507 32.6971 32.562C34.125 31.2074 34.125 29.0272 34.125 24.6667V9.25004C34.125 6.34304 34.125 4.88954 33.1731 3.98647C32.2211 3.08337 30.6891 3.08337 27.625 3.08337H11.375C8.31087 3.08337 6.7788 3.08337 5.82691 3.98647ZM13 12.3334C12.1025 12.3334 11.375 13.0236 11.375 13.875C11.375 14.7265 12.1025 15.4167 13 15.4167H26C26.8975 15.4167 27.625 14.7265 27.625 13.875C27.625 13.0236 26.8975 12.3334 26 12.3334H13ZM13 21.5834H26C26.8975 21.5834 27.625 20.8932 27.625 20.0417C27.625 19.1902 26.8975 18.5 26 18.5H13C12.1025 18.5 11.375 19.1902 11.375 20.0417C11.375 20.8932 12.1025 21.5834 13 21.5834Z" fill="white"/>
</svg>
