<svg width="39" height="37" viewBox="0 0 39 37" fill="none" xmlns="http://www.w3.org/2000/svg">
<path fill-rule="evenodd" clip-rule="evenodd" d="M19.5001 3.08337V10.7917V10.8756C19.5 11.5294 19.4998 12.1647 19.5741 12.6888C19.6577 13.2795 19.8618 13.9537 20.452 14.5136C21.0422 15.0736 21.7529 15.2671 22.3756 15.3465C22.9279 15.417 23.5976 15.4169 24.2867 15.4167H24.3751H32.5001V24.6667C32.5001 29.0272 32.5001 31.2074 31.0722 32.562C29.6443 33.9167 27.3463 33.9167 22.7501 33.9167H16.2501C11.6539 33.9167 9.35583 33.9167 7.92798 32.562C6.50012 31.2074 6.50012 29.0272 6.50012 24.6667V12.3334C6.50012 7.97288 6.50012 5.79264 7.92798 4.43801C9.35583 3.08337 11.6539 3.08337 16.2501 3.08337H19.5001ZM22.7501 3.0905V10.7917C22.7501 11.562 22.7535 11.9847 22.7951 12.2779L22.7968 12.2891L22.8086 12.2907C23.1177 12.3301 23.5631 12.3334 24.3751 12.3334H32.4926C32.4761 11.6988 32.4229 11.2788 32.2528 10.8889C32.0053 10.3223 31.5357 9.87671 30.5963 8.98554L26.279 4.88954C25.3396 3.99837 24.8699 3.55278 24.2726 3.31808C23.8616 3.15659 23.419 3.10621 22.7501 3.0905Z" fill="white"/>
</svg>
