<svg width="24" height="24" viewBox="0 0 24 24" fill="none" xmlns="http://www.w3.org/2000/svg">
<path d="M12 13C13.6569 13 15 11.6569 15 10C15 8.34315 13.6569 7 12 7C10.3431 7 9 8.34315 9 10C9 11.6569 10.3431 13 12 13Z" stroke="#726A6A" stroke-width="2" stroke-linecap="round"/>
<path d="M12 21C16.9706 21 21 16.9706 21 12C21 7.02944 16.9706 3 12 3C7.02944 3 3 7.02944 3 12C3 16.9706 7.02944 21 12 21Z" stroke="#726A6A" stroke-width="2"/>
<path d="M17.7806 18.8264C17.9077 18.7566 17.9679 18.6055 17.9141 18.4708C17.5285 17.5045 16.7857 16.6534 15.7815 16.0332C14.6967 15.3632 13.3675 15 12.0001 15C10.6327 15 9.30353 15.3632 8.2187 16.0332C7.21456 16.6534 6.47172 17.5045 6.0861 18.4708C6.03235 18.6055 6.09248 18.7566 6.2196 18.8264C9.81983 20.803 14.1804 20.803 17.7806 18.8264Z" fill="#726A6A"/>
</svg>
