<svg width="39" height="37" viewBox="0 0 39 37" fill="none" xmlns="http://www.w3.org/2000/svg">
<path fill-rule="evenodd" clip-rule="evenodd" d="M19.5 3.08337C21.9362 3.08337 23.8881 3.08337 25.4756 3.19686C25.2897 3.63853 25.1875 4.12045 25.1875 4.62504V5.39587H24.375C22.1314 5.39587 20.3125 7.12145 20.3125 9.25004C20.3125 11.3786 22.1314 13.1042 24.375 13.1042H25.1875V13.875C25.1875 16.0036 27.0064 17.7292 29.25 17.7292C30.5789 17.7292 31.7588 17.1238 32.5 16.1878V21.5834C32.5 27.3973 32.5 30.3044 30.5961 32.1105C28.6925 33.9167 25.6282 33.9167 19.5 33.9167C13.3717 33.9167 10.3076 33.9167 8.4038 32.1105C6.5 30.3044 6.5 27.3973 6.5 21.5834V15.4167C6.5 9.60271 6.5 6.69573 8.4038 4.88954C10.3076 3.08337 13.3717 3.08337 19.5 3.08337ZM13 16.9584C12.1025 16.9584 11.375 17.6486 11.375 18.5C11.375 19.3515 12.1025 20.0417 13 20.0417H19.5C20.3975 20.0417 21.125 19.3515 21.125 18.5C21.125 17.6486 20.3975 16.9584 19.5 16.9584H13ZM13 21.5834C12.1025 21.5834 11.375 22.2736 11.375 23.125C11.375 23.9765 12.1025 24.6667 13 24.6667H22.75C23.6475 24.6667 24.375 23.9765 24.375 23.125C24.375 22.2736 23.6475 21.5834 22.75 21.5834H13ZM13 26.2084C12.1025 26.2084 11.375 26.8986 11.375 27.75C11.375 28.6015 12.1025 29.2917 13 29.2917H19.5C20.3975 29.2917 21.125 28.6015 21.125 27.75C21.125 26.8986 20.3975 26.2084 19.5 26.2084H13Z" fill="white"/>
<path d="M29.25 4.625V13.875" stroke="white" stroke-width="2" stroke-linecap="round"/>
<path d="M34.125 9.25H24.375" stroke="white" stroke-width="2" stroke-linecap="round"/>
</svg>
