<svg width="279" height="228" viewBox="0 0 279 228" fill="none" xmlns="http://www.w3.org/2000/svg">
<path d="M267.588 148.18C267.356 156.868 265.902 165.48 263.268 173.762C263.208 173.954 263.145 174.143 263.082 174.336H246.958C246.976 174.164 246.993 173.971 247.01 173.762C248.085 161.395 254.283 86.1294 246.872 73.2581C247.52 74.3022 268.838 108.886 267.588 148.18Z" fill="#F0F0F0"/>
<path d="M266.379 173.762C266.244 173.954 266.103 174.146 265.96 174.336H253.865C253.957 174.172 254.063 173.98 254.186 173.762C256.184 170.153 262.098 159.365 267.588 148.18C273.488 136.161 278.901 123.685 278.445 119.17C278.586 120.188 282.668 151.232 266.379 173.762Z" fill="#F0F0F0"/>
<path d="M32.1276 24.3909C24.7167 37.2623 30.9149 112.528 31.99 124.895C32.0072 125.104 32.0244 125.296 32.0416 125.468H15.9183C15.8552 125.276 15.7921 125.087 15.7319 124.895C13.0984 116.613 11.644 108.001 11.4115 99.3127C10.1616 60.0187 31.4797 25.435 32.1276 24.3909Z" fill="#F0F0F0"/>
<path d="M0.55477 70.3025C0.0989133 74.8177 5.5116 87.2932 11.4116 99.3125C16.9017 110.497 22.8161 121.286 24.8142 124.895C24.9375 125.113 25.0436 125.305 25.1353 125.468H13.04C12.8966 125.279 12.7562 125.087 12.6214 124.895C-3.66819 102.365 0.414253 71.3208 0.55477 70.3025Z" fill="#F0F0F0"/>
<path d="M276.839 14.1424H6.33377C6.22964 14.1424 6.12979 14.101 6.05616 14.0273C5.98253 13.9536 5.94116 13.8537 5.94116 13.7495C5.94116 13.6453 5.98253 13.5454 6.05616 13.4717C6.12979 13.3981 6.22964 13.3567 6.33377 13.3567H276.839C276.943 13.3567 277.043 13.3981 277.117 13.4717C277.191 13.5454 277.232 13.6453 277.232 13.7495C277.232 13.8537 277.191 13.9536 277.117 14.0273C277.043 14.101 276.943 14.1424 276.839 14.1424V14.1424Z" fill="#CACACA"/>
<path d="M15.1705 8.6425C17.5556 8.6425 19.4891 6.70781 19.4891 4.32125C19.4891 1.93469 17.5556 0 15.1705 0C12.7853 0 10.8518 1.93469 10.8518 4.32125C10.8518 6.70781 12.7853 8.6425 15.1705 8.6425Z" fill="#3F3D56"/>
<path d="M30.0897 8.6425C32.4748 8.6425 34.4083 6.70781 34.4083 4.32125C34.4083 1.93469 32.4748 0 30.0897 0C27.7045 0 25.771 1.93469 25.771 4.32125C25.771 6.70781 27.7045 8.6425 30.0897 8.6425Z" fill="#3F3D56"/>
<path d="M45.0086 8.6425C47.3937 8.6425 49.3273 6.70781 49.3273 4.32125C49.3273 1.93469 47.3937 0 45.0086 0C42.6235 0 40.6899 1.93469 40.6899 4.32125C40.6899 6.70781 42.6235 8.6425 45.0086 8.6425Z" fill="#3F3D56"/>
<path d="M267.901 2.64314H257.3C257.197 2.64338 257.095 2.62323 256.999 2.58386C256.904 2.54448 256.817 2.48665 256.744 2.41366C256.671 2.34068 256.613 2.25399 256.573 2.15855C256.534 2.0631 256.513 1.96079 256.513 1.85746C256.513 1.75413 256.534 1.65181 256.573 1.55636C256.613 1.46092 256.671 1.37423 256.744 1.30125C256.817 1.22826 256.904 1.17043 256.999 1.13105C257.095 1.09168 257.197 1.07154 257.3 1.07178H267.901C268.004 1.07154 268.106 1.09168 268.202 1.13105C268.297 1.17043 268.384 1.22826 268.457 1.30125C268.53 1.37423 268.588 1.46092 268.628 1.55636C268.667 1.65181 268.688 1.75413 268.688 1.85746C268.688 1.96079 268.667 2.0631 268.628 2.15855C268.588 2.25399 268.53 2.34068 268.457 2.41366C268.384 2.48665 268.297 2.54448 268.202 2.58386C268.106 2.62323 268.004 2.64338 267.901 2.64314V2.64314Z" fill="#3F3D56"/>
<path d="M267.901 5.58943H257.3C257.197 5.58967 257.095 5.56953 256.999 5.53015C256.904 5.49078 256.817 5.43294 256.744 5.35996C256.671 5.28698 256.613 5.20028 256.573 5.10484C256.534 5.0094 256.513 4.90709 256.513 4.80375C256.513 4.70042 256.534 4.5981 256.573 4.50266C256.613 4.40722 256.671 4.32052 256.744 4.24754C256.817 4.17456 256.904 4.11672 256.999 4.07735C257.095 4.03797 257.197 4.01783 257.3 4.01807H267.901C268.004 4.01783 268.106 4.03797 268.202 4.07735C268.297 4.11672 268.384 4.17456 268.457 4.24754C268.53 4.32052 268.588 4.40722 268.628 4.50266C268.667 4.5981 268.688 4.70042 268.688 4.80375C268.688 4.90709 268.667 5.0094 268.628 5.10484C268.588 5.20028 268.53 5.28698 268.457 5.35996C268.384 5.43294 268.297 5.49078 268.202 5.53015C268.106 5.56953 268.004 5.58967 267.901 5.58943V5.58943Z" fill="#3F3D56"/>
<path d="M267.901 8.53571H257.3C257.197 8.53596 257.095 8.51581 256.999 8.47643C256.904 8.43706 256.817 8.37923 256.744 8.30625C256.671 8.23327 256.613 8.14657 256.573 8.05113C256.534 7.95569 256.513 7.85337 256.513 7.75004C256.513 7.6467 256.534 7.54438 256.573 7.44894C256.613 7.3535 256.671 7.2668 256.744 7.19382C256.817 7.12084 256.904 7.06301 256.999 7.02364C257.095 6.98426 257.197 6.96412 257.3 6.96436H267.901C268.004 6.96412 268.106 6.98426 268.202 7.02364C268.297 7.06301 268.384 7.12084 268.457 7.19382C268.53 7.2668 268.588 7.3535 268.628 7.44894C268.667 7.54438 268.688 7.6467 268.688 7.75004C268.688 7.85337 268.667 7.95569 268.628 8.05113C268.588 8.14657 268.53 8.23327 268.457 8.30625C268.384 8.37923 268.297 8.43706 268.202 8.47643C268.106 8.51581 268.004 8.53596 267.901 8.53571V8.53571Z" fill="#3F3D56"/>
<path d="M263.003 173.993H161.043C160.248 173.992 159.486 173.676 158.924 173.113C158.362 172.551 158.045 171.788 158.044 170.992V38.1078C158.045 37.3123 158.362 36.5496 158.924 35.987C159.486 35.4245 160.248 35.1081 161.043 35.1072H263.003C263.799 35.1081 264.561 35.4245 265.123 35.987C265.685 36.5496 266.001 37.3123 266.002 38.1078V170.992C266.001 171.788 265.685 172.551 265.123 173.113C264.561 173.676 263.799 173.992 263.003 173.993V173.993ZM161.043 35.9645C160.475 35.9652 159.931 36.1912 159.529 36.593C159.128 36.9948 158.902 37.5396 158.901 38.1078V170.992C158.902 171.561 159.128 172.105 159.529 172.507C159.931 172.909 160.475 173.135 161.043 173.136H263.003C263.571 173.135 264.116 172.909 264.517 172.507C264.919 172.105 265.145 171.561 265.146 170.992V38.1078C265.145 37.5396 264.919 36.9948 264.517 36.593C264.116 36.1912 263.571 35.9652 263.003 35.9645H161.043Z" fill="#E6E6E6"/>
<path d="M231.821 93.3188H188.552C187.757 93.3179 186.995 93.0014 186.433 92.4389C185.871 91.8764 185.554 91.1137 185.553 90.3182V56.454C185.554 55.6585 185.871 54.8957 186.433 54.3332C186.995 53.7707 187.757 53.4543 188.552 53.4534H231.821C232.616 53.4543 233.378 53.7707 233.941 54.3332C234.503 54.8957 234.819 55.6585 234.82 56.454V90.3182C234.819 91.1137 234.503 91.8764 233.941 92.4389C233.378 93.0014 232.616 93.3179 231.821 93.3188V93.3188Z" fill="#E6E6E6"/>
<path d="M231.73 149.988H188.461C187.666 149.987 186.904 149.671 186.342 149.108C185.78 148.546 185.463 147.783 185.462 146.988V113.123C185.463 112.328 185.78 111.565 186.342 111.003C186.904 110.44 187.666 110.124 188.461 110.123H231.73C232.525 110.124 233.287 110.44 233.85 111.003C234.412 111.565 234.728 112.328 234.729 113.123V146.988C234.728 147.783 234.412 148.546 233.85 149.108C233.287 149.671 232.525 149.987 231.73 149.988V149.988ZM188.461 110.98C187.893 110.981 187.349 111.207 186.947 111.609C186.546 112.01 186.32 112.555 186.319 113.123V146.988C186.32 147.556 186.546 148.101 186.947 148.502C187.349 148.904 187.893 149.13 188.461 149.131H231.73C232.298 149.13 232.842 148.904 233.244 148.502C233.646 148.101 233.871 147.556 233.872 146.988V113.123C233.871 112.555 233.646 112.01 233.244 111.609C232.842 111.207 232.298 110.981 231.73 110.98H188.461Z" fill="#3F3D56"/>
<path d="M243.725 159.419H200.457C199.662 159.418 198.899 159.101 198.337 158.539C197.775 157.976 197.459 157.214 197.458 156.418V122.554C197.459 121.758 197.775 120.996 198.337 120.433C198.899 119.871 199.662 119.554 200.457 119.553H243.725C244.52 119.554 245.283 119.871 245.845 120.433C246.407 120.996 246.723 121.758 246.724 122.554V156.418C246.723 157.214 246.407 157.976 245.845 158.539C245.283 159.101 244.52 159.418 243.725 159.419V159.419Z" fill="#6C63FF"/>
<path d="M226.945 149.504H205.223C205.196 149.504 205.169 149.502 205.142 149.497L215.416 131.691C215.478 131.58 215.569 131.488 215.679 131.424C215.789 131.36 215.914 131.326 216.042 131.326C216.169 131.326 216.294 131.36 216.404 131.424C216.514 131.488 216.605 131.58 216.668 131.691L223.563 143.64L223.893 144.212L226.945 149.504Z" fill="white"/>
<path opacity="0.2" d="M226.945 149.503H219.529L223.17 144.212L223.432 143.831L223.562 143.64L223.893 144.212L226.945 149.503Z" fill="black"/>
<path d="M239.04 149.503H220.252L223.893 144.212L224.155 143.831L228.899 136.935C228.983 136.83 229.088 136.743 229.208 136.681C229.327 136.619 229.458 136.583 229.593 136.575C229.727 136.567 229.862 136.587 229.988 136.634C230.114 136.682 230.228 136.755 230.324 136.85C230.349 136.877 230.371 136.905 230.392 136.935L239.04 149.503Z" fill="white"/>
<path d="M238.16 131.622C239.938 131.622 241.378 130.18 241.378 128.402C241.378 126.623 239.938 125.182 238.16 125.182C236.383 125.182 234.942 126.623 234.942 128.402C234.942 130.18 236.383 131.622 238.16 131.622Z" fill="white"/>
<path d="M116.761 173.954H14.8006C14.0055 173.953 13.2433 173.637 12.6811 173.074C12.1189 172.512 11.8027 171.749 11.8018 170.954V137.089C11.8027 136.294 12.1189 135.531 12.6811 134.969C13.2433 134.406 14.0055 134.09 14.8006 134.089H116.761C117.556 134.09 118.318 134.406 118.88 134.969C119.442 135.531 119.759 136.294 119.76 137.089V170.954C119.759 171.749 119.442 172.512 118.88 173.074C118.318 173.637 117.556 173.953 116.761 173.954V173.954Z" fill="#E6E6E6"/>
<path d="M116.332 125.516H14.3721C13.5771 125.515 12.8148 125.198 12.2527 124.636C11.6905 124.073 11.3742 123.311 11.3733 122.515V39.7836C11.3742 38.988 11.6904 38.2253 12.2526 37.6628C12.8148 37.1003 13.5771 36.7838 14.3721 36.783H116.332C117.127 36.7839 117.89 37.1003 118.452 37.6628C119.014 38.2254 119.33 38.9881 119.331 39.7836V122.515C119.33 123.311 119.014 124.073 118.452 124.636C117.89 125.198 117.127 125.515 116.332 125.516V125.516ZM14.3721 37.6403C13.8042 37.6409 13.2598 37.867 12.8582 38.2688C12.4567 38.6706 12.2308 39.2153 12.2301 39.7836V122.515C12.2308 123.083 12.4567 123.628 12.8582 124.03C13.2598 124.432 13.8042 124.658 14.3721 124.658H116.332C116.9 124.658 117.445 124.432 117.846 124.03C118.248 123.628 118.474 123.083 118.474 122.515V39.7836C118.474 39.2153 118.248 38.6706 117.846 38.2688C117.445 37.867 116.9 37.6409 116.332 37.6403H14.3721Z" fill="#3F3D56"/>
<path d="M133.04 140.519H31.0799C30.2848 140.518 29.5226 140.201 28.9605 139.639C28.3983 139.076 28.082 138.314 28.0811 137.518V54.7868C28.082 53.9912 28.3982 53.2285 28.9604 52.666C29.5226 52.1035 30.2848 51.7871 31.0799 51.7861H133.04C133.835 51.7871 134.597 52.1035 135.16 52.666C135.722 53.2285 136.038 53.9912 136.039 54.7868V137.518C136.038 138.314 135.722 139.076 135.16 139.639C134.597 140.201 133.835 140.518 133.04 140.519V140.519Z" fill="#6C63FF"/>
<path d="M93.6925 120.157H41.6391C41.5739 120.158 41.5088 120.153 41.4446 120.142L66.0635 77.4729C66.2137 77.2072 66.4318 76.9861 66.6954 76.8323C66.959 76.6785 67.2586 76.5974 67.5638 76.5974C67.8689 76.5974 68.1686 76.6785 68.4322 76.8323C68.6958 76.9861 68.9138 77.2072 69.064 77.4729L85.5864 106.107L86.3779 107.477L93.6925 120.157Z" fill="white"/>
<path opacity="0.2" d="M93.6925 120.157H75.9202L84.6446 107.477L85.2727 106.564L85.5867 106.107L86.3784 107.477L93.6925 120.157Z" fill="black"/>
<path d="M122.676 120.157H77.6536L86.3779 107.477L87.0058 106.564L98.3744 90.0393C98.5755 89.7868 98.8273 89.5795 99.1136 89.4308C99.3999 89.2821 99.7143 89.1952 100.036 89.176C100.358 89.1567 100.681 89.2054 100.983 89.319C101.285 89.4325 101.559 89.6083 101.789 89.835C101.848 89.8995 101.903 89.9678 101.953 90.0393L122.676 120.157Z" fill="white"/>
<path d="M119.588 76.434C123.847 76.434 127.3 72.9794 127.3 68.7181C127.3 64.4567 123.847 61.0022 119.588 61.0022C115.329 61.0022 111.877 64.4567 111.877 68.7181C111.877 72.9794 115.329 76.434 119.588 76.434Z" fill="white"/>
<path d="M154.781 136.201C155.476 135.819 156.283 135.691 157.062 135.839L169.28 124.415L167.252 114.228L175.274 114.663L175.991 127.027L159.827 139.623C159.756 140.206 159.536 140.761 159.189 141.235C158.842 141.709 158.379 142.085 157.845 142.328C157.311 142.572 156.723 142.673 156.138 142.624C155.553 142.575 154.99 142.376 154.504 142.046C154.018 141.716 153.625 141.268 153.362 140.742C153.1 140.217 152.976 139.633 153.004 139.046C153.032 138.459 153.21 137.889 153.521 137.391C153.832 136.893 154.266 136.483 154.781 136.201L154.781 136.201Z" fill="#FFB8B8"/>
<path d="M141.29 222.194H136.038L133.539 201.924H141.291L141.29 222.194Z" fill="#FFB6B6"/>
<path d="M142.629 227.289L125.694 227.288V227.074C125.694 225.325 126.389 223.647 127.625 222.41C128.861 221.173 130.538 220.478 132.286 220.478H132.286L142.63 220.479L142.629 227.289Z" fill="#2F2E41"/>
<path d="M180.703 222.194H175.451L172.952 201.924H180.704L180.703 222.194Z" fill="#FFB6B6"/>
<path d="M182.042 227.289L165.107 227.288V227.074C165.107 225.325 165.802 223.647 167.038 222.41C168.274 221.173 169.951 220.478 171.699 220.478H171.699L182.043 220.479L182.042 227.289Z" fill="#2F2E41"/>
<path d="M171.124 108.229C170.49 107.428 169.591 106.88 168.588 106.684C167.586 106.488 166.547 106.657 165.658 107.161V107.161C164.78 107.659 164.105 108.452 163.755 109.399C163.404 110.347 163.399 111.387 163.741 112.338L166.316 119.496L176.865 115.485L171.124 108.229Z" fill="#6C63FF"/>
<path d="M170.177 139.842C169.697 139.481 169.181 139.172 168.637 138.917L149.438 141.873L149.86 153.906C140.575 171.443 134.434 191.45 131.083 213.648L143.109 216.392C148.49 195.534 154.602 176.817 162.308 162.772L170.431 215.884L184.249 215.547C182.429 184.325 181.025 147.925 170.177 139.842Z" fill="#2F2E41"/>
<path d="M155.847 105.205C159.98 105.205 163.331 101.852 163.331 97.7169C163.331 93.5816 159.98 90.2292 155.847 90.2292C151.715 90.2292 148.364 93.5816 148.364 97.7169C148.364 101.852 151.715 105.205 155.847 105.205Z" fill="#FFB8B8"/>
<path d="M172.303 116.958C172.646 114.887 172.309 112.761 171.344 110.898C170.379 109.034 168.838 107.533 166.949 106.619V106.619L158.51 107.041C157.137 107.397 155.862 108.062 154.784 108.985C153.706 109.908 152.852 111.066 152.288 112.369C148.631 120.935 148.11 131.887 149.649 144.406L169.638 139.648C166.896 133.472 169.1 125.406 172.303 116.958Z" fill="#6C63FF"/>
<path d="M146.569 95.8907V95.8907C146.569 94.8774 146.768 93.8741 147.156 92.938C147.543 92.0018 148.111 91.1512 148.827 90.4348C149.543 89.7183 150.393 89.1499 151.329 88.7622C152.264 88.3744 153.267 88.1748 154.28 88.1748H154.722C156.119 87.0636 157.851 86.4591 159.635 86.4602C161.737 86.4602 163.753 87.2957 165.239 88.7829C166.725 90.2701 167.56 92.2872 167.56 94.3904V104.464C162.436 104.336 156.632 105.347 150.424 107.036C151.989 102.699 153.029 98.7116 152.318 95.8907H146.569Z" fill="#2F2E41"/>
<path d="M130.718 130.612C131.511 130.611 132.28 130.887 132.892 131.391L149.093 127.247L152.207 117.338L159.033 121.577L153.724 132.765L133.5 136.039C133.158 136.516 132.698 136.897 132.166 137.146C131.635 137.395 131.048 137.502 130.462 137.459C129.877 137.415 129.312 137.222 128.823 136.897C128.334 136.573 127.936 136.128 127.668 135.605C127.4 135.082 127.271 134.499 127.293 133.912C127.315 133.325 127.487 132.754 127.793 132.253C128.099 131.751 128.529 131.337 129.041 131.05C129.553 130.763 130.131 130.612 130.718 130.612V130.612Z" fill="#FFB8B8"/>
<path d="M162.306 114.336C162.599 113.357 162.532 112.306 162.118 111.372C161.703 110.438 160.969 109.683 160.047 109.243V109.243C159.135 108.808 158.1 108.71 157.123 108.965C156.146 109.221 155.291 109.813 154.709 110.639L150.323 116.854L159.655 123.203L162.306 114.336Z" fill="#6C63FF"/>
<path d="M203.979 228H99.3221C99.255 228 99.1885 227.987 99.1265 227.962C99.0644 227.936 99.008 227.899 98.9605 227.851C98.913 227.804 98.8752 227.747 98.8495 227.685C98.8238 227.623 98.8105 227.557 98.8105 227.49C98.8105 227.423 98.8238 227.356 98.8495 227.294C98.8752 227.232 98.913 227.176 98.9605 227.128C99.008 227.081 99.0644 227.043 99.1265 227.018C99.1885 226.992 99.255 226.979 99.3221 226.979H203.979C204.046 226.979 204.112 226.992 204.174 227.018C204.236 227.043 204.293 227.081 204.34 227.128C204.388 227.176 204.426 227.232 204.451 227.294C204.477 227.356 204.49 227.423 204.49 227.49C204.49 227.557 204.477 227.623 204.451 227.685C204.426 227.747 204.388 227.804 204.34 227.851C204.293 227.899 204.236 227.936 204.174 227.962C204.112 227.987 204.046 228 203.979 228V228Z" fill="#CACACA"/>
</svg>
