<svg width="24" height="24" viewBox="0 0 24 24" fill="none" xmlns="http://www.w3.org/2000/svg">
<path d="M6.9981 10.2467L7.43297 11.0077C7.70982 11.4922 7.84824 11.7344 7.84824 12C7.84824 12.2656 7.70982 12.5078 7.43298 12.9923H7.43297L6.9981 13.7533C5.7598 15.9203 5.14065 17.0039 5.62347 17.5412C6.10629 18.0785 7.2496 17.5783 9.53622 16.5779L15.8119 13.8323C17.6074 13.0468 18.5051 12.654 18.5051 12C18.5051 11.346 17.6074 10.9532 15.8119 10.1677L9.53623 7.42208C7.24961 6.42169 6.10629 5.92149 5.62347 6.45881C5.14065 6.99613 5.7598 8.07964 6.9981 10.2467Z" fill="#726A6A"/>
</svg>
