<svg width="24" height="24" viewBox="0 0 24 24" fill="none" xmlns="http://www.w3.org/2000/svg">
<path d="M17 3.00022H21C21.2652 3.00022 21.5196 3.10557 21.7071 3.29311C21.8946 3.48064 22 3.735 22 4.00022V20.0002C22 20.2654 21.8946 20.5198 21.7071 20.7073C21.5196 20.8949 21.2652 21.0002 21 21.0002H17V3.00022ZM2.85899 2.87722L15.429 1.08222C15.4999 1.07204 15.5722 1.07723 15.641 1.09744C15.7097 1.11765 15.7734 1.1524 15.8275 1.19935C15.8817 1.24629 15.9251 1.30433 15.9548 1.36952C15.9846 1.43472 16 1.50555 16 1.57722V22.4232C16 22.4948 15.9846 22.5655 15.9549 22.6306C15.9252 22.6957 15.8819 22.7537 15.8278 22.8007C15.7738 22.8476 15.7103 22.8824 15.6417 22.9026C15.573 22.9229 15.5009 22.9282 15.43 22.9182L2.85799 21.1232C2.61961 21.0893 2.40149 20.9704 2.24368 20.7886C2.08588 20.6067 1.999 20.374 1.99899 20.1332V3.86722C1.999 3.62643 2.08588 3.39373 2.24368 3.21186C2.40149 3.02999 2.61961 2.91117 2.85799 2.87722H2.85899ZM11 8.00022V12.9892L8.99999 11.0002L7.00999 13.0002L6.99999 8.00022H4.99999V16.0002H6.99999L8.99999 14.0002L11 16.0002H13V8.00022H11Z" fill="white"/>
</svg>
